# xmcd
#
# Track frame offsets: 
#        150
#        22666
#        43854
#        61876
#        80334
#        102807
#        126427
#        145092
#        163652
#        182929
#        200601
#        223077
#
# Disc length: 3212 seconds
#
# Revision: 0
# Processed by: cddbd v1.5.2PL0 Copyright (c) Steve Scherf et al.
# Submitted via: ExactAudioCopy v1.0b3
#
DISCID=a80c8a0c
DTITLE=Various Artist - Thien Duong Khong Tim Thay
DYEAR=1900
DGENRE=
TTITLE0=Tu Quyen - Tinh yeu ngan dam
TTITLE1=Huy Vu - Thien duong khong tim thay
TTITLE2=Ha Vy - Duong chieu ron vui
TTITLE3=Tu Quyen - Yeu mot nguoi
TTITLE4=Luu Minh Thang - Giot le chia ly
TTITLE5=Huy Vu - Tim dau yeu xua
TTITLE6=Ha Vy - Tinh mai bay xa
TTITLE7=Luu Minh Thang - Nhung buoi chieu vang
TTITLE8=Tu Quyen - Muon kiep em van cho
TTITLE9=Huy Vu - Song trong co don
TTITLE10=hoa tau - Tinh yeu ngan dam
TTITLE11=hoa tau - Duong chieu ron vui
EXTD=
EXTT0=
EXTT1=
EXTT2=
EXTT3=
EXTT4=
EXTT5=
EXTT6=
EXTT7=
EXTT8=
EXTT9=
EXTT10=
EXTT11=
PLAYORDER=
